HIERARCHY
ROOT Hips
{
  OFFSET 26.0538 102.591 203.439
  CHANNELS 6 Xposition Yposition Zposition Zrotation Xrotation Yrotation
  JOINT RightUpLeg
  {
    OFFSET -8.9458 -8.66707 0.101652
    CHANNELS 3 Zrotation Xrotation Yrotation
    JOINT RightLeg
    {
      OFFSET 0 -44.4227 1.3727
      CHANNELS 3 Zrotation Xrotation Yrotation
      JOINT RightFoot
      {
        OFFSET 0.253549 -42.0924 -1.46059
        CHANNELS 3 Zrotation Xrotation Yrotation
        JOINT RightToes
        {
          OFFSET 0.04 -4.41509 8.4991
          CHANNELS 3 Zrotation Xrotation Yrotation
          End Site
          {
            OFFSET -0.08 -0.137448 9.77979
          }
        }
      }
    }
  }
  JOINT Spine
  {
    OFFSET 0 11.8905 0
    CHANNELS 3 Zrotation Xrotation Yrotation
    JOINT Spine1
    {
      OFFSET 0 25.6574 0.127663
      CHANNELS 3 Zrotation Xrotation Yrotation
      JOINT HEad
      {
        OFFSET 0 8.73416 0.011341
        CHANNELS 3 Zrotation Xrotation Yrotation
        End Site
        {
          OFFSET -0.29 12.7742 2.51395
        }
      }
      JOINT LeftShoulder1
      {
        OFFSET 8.99 -0.362252 -0.22
        CHANNELS 3 Zrotation Xrotation Yrotation
        JOINT LeftArm
        {
          OFFSET 10.2827 -0.00338 0.322123
          CHANNELS 3 Zrotation Xrotation Yrotation
          JOINT LeftForeArm
          {
            OFFSET 32.7669 0.099144 -1.42434
            CHANNELS 3 Zrotation Xrotation Yrotation
            JOINT LeftHand
            {
              OFFSET 27.5643 0.085362 1.02216
              CHANNELS 3 Zrotation Xrotation Yrotation
              End Site
              {
                OFFSET 16.7443 -0.6 1.50291
              }
            }
          }
        }
      }
      JOINT RightShoulder
      {
        OFFSET -8.99 -0.362252 -0.22
        CHANNELS 3 Zrotation Xrotation Yrotation
        JOINT RightArm
        {
          OFFSET -10.2827 -0.00338 0.322123
          CHANNELS 3 Zrotation Xrotation Yrotation
          JOINT RightForeArm
          {
            OFFSET -32.8971 0.099144 -1.42434
            CHANNELS 3 Zrotation Xrotation Yrotation
            JOINT RightHand
            {
              OFFSET -27.4921 0.085362 1.02216
              CHANNELS 3 Zrotation Xrotation Yrotation
              End Site
              {
                OFFSET -16.6312 -0.6 1.50291
              }
            }
          }
        }
      }
    }
  }
  JOINT LeftUpLeg
  {
    OFFSET 8.9458 -8.66707 0.101652
    CHANNELS 3 Zrotation Xrotation Yrotation
    JOINT LeftLeg
    {
      OFFSET 0 -44.4227 1.3727
      CHANNELS 3 Zrotation Xrotation Yrotation
      JOINT LeftFoot
      {
        OFFSET -0.253549 -42.0924 -1.46059
        CHANNELS 3 Zrotation Xrotation Yrotation
        JOINT LeftToes
        {
          OFFSET -0.04 -4.41509 8.4991
          CHANNELS 3 Zrotation Xrotation Yrotation
          End Site
          {
            OFFSET 0.08 -0.047448 9.77979
          }
        }
      }
    }
  }
}
MOTION
Frames:	19
Frame Time:	0.0166667
26.0538 102.591 203.439 -3.37138 0.0028261 174.723 -12.5479 3.53494 -2.39249 11.9802 26.4981 -20.8413 14.9368 -3.68664 -0.161137 0.0462048 0.000533964 0.662642 -0.772678 3.45372 -0.116461 -3.45318 15.0164 0.83168 -11.7856 13.0017 16.5402 -3.97569e-016 0 -7.95139e-016 -89.6367 -53.3619 -1.59381 -15.6786 15.7216 -25.0398 0.368473 9.90896 -0.00117926 -12.7824 -0.402384 11.1703 96.5339 -27.4279 14.1728 18.5412 15.5175 19.6119 -0.369625 9.91382 0.00119886 1.87389 -16.5057 1.09265 -10.3652 14.4777 37.496 5.20555 2.41987 -0.174821 -8.57895e-012 -1.45665e-011 4.31919e-012 
25.5448 102.646 202.328 -3.29733 -0.0737603 174.791 -13.319 2.69739 -2.14244 12.7173 28.2714 -22.0087 15.2329 -1.83835 -0.407568 1.37844 -3.83018 -2.0045 -1.08686 3.48709 -0.058442 -3.40739 15.0843 0.814885 -11.5993 13.0401 16.5069 -1.98785e-016 -9.54166e-015 1.59028e-015 -90.104 -52.5605 -2.71313 -15.719 15.712 -24.8959 0.368473 9.90896 -0.00117926 -12.6291 -0.380053 11.0813 96.2641 -27.9204 13.6012 18.4747 15.4865 19.5904 -0.369625 9.91382 0.00119886 1.52101 -16.0936 1.01258 -10.3626 14.8703 37.2997 4.92505 1.8268 -0.127307 -8.57796e-012 -1.45665e-011 4.30647e-012 
25.0534 102.678 201.225 -3.24227 -0.134865 174.872 -14.0482 1.75713 -1.93983 13.4741 30.2236 -23.079 15.4635 -0.109913 -0.63703 3.27408 -7.10357 -4.18826 -1.42221 3.52268 -0.00171964 -3.39847 15.1558 0.803878 -11.4083 13.0795 16.4776 8.82781e-032 -6.36111e-015 7.95139e-016 -90.5159 -51.7502 -3.82082 -15.7303 15.7037 -24.7916 0.368473 9.90896 -0.00117926 -12.436 -0.351695 10.9247 95.9962 -28.3722 13.0373 18.419 15.4522 19.5433 -0.369625 9.91382 0.00119886 1.16647 -15.7051 0.93571 -10.3734 15.3326 37.1202 4.65378 1.20857 -0.0799756 -8.57915e-012 -1.45669e-011 4.31919e-012 
24.6072 102.648 200.141 -3.23705 -0.148544 174.994 -14.707 0.56807 -1.95906 14.0921 32.7218 -23.7642 15.4869 1.47477 -0.845914 8.15361 -9.46851 -5.21331 -1.83295 3.56719 0.0558031 -3.48329 15.2504 0.807406 -11.2135 13.119 16.468 0 0 -7.95139e-016 -90.8819 -50.922 -4.9439 -15.6483 15.7053 -24.8282 0.368473 9.90896 -0.00117926 -12.1368 -0.305947 10.544 95.7702 -28.7222 12.5224 18.3734 15.3979 19.3859 -0.369625 9.91382 0.00119886 0.79584 -15.3794 0.849196 -10.4102 15.9948 37.0025 4.40472 0.534514 -0.0324204 -8.57835e-012 -1.45685e-011 4.30329e-012 
24.1942 102.587 199.082 -3.26607 -0.148598 175.117 -15.2541 -0.840483 -1.86378 14.7446 35.5503 -24.3588 15.3844 2.50821 -0.979122 13.1966 -9.86303 -4.99577 -2.24086 3.60941 0.102637 -3.63889 15.3247 0.822462 -10.9939 13.1657 16.4472 3.97569e-016 0 -7.95139e-016 -91.1517 -50.1031 -6.11382 -15.5491 15.697 -24.8593 0.368473 9.90896 -0.00117926 -11.7694 -0.252562 10.1377 95.5261 -28.9931 11.9827 18.3837 15.3593 19.27 -0.369625 9.91382 0.00119886 0.439978 -15.094 0.802469 -10.4991 16.7403 36.8835 4.1723 -0.203985 0.0136498 -8.57875e-012 -1.45661e-011 4.31283e-012 
23.8133 102.505 198.061 -3.33422 -0.167238 175.201 -15.5666 -2.55599 -1.249 15.6297 38.8215 -25.0883 15.144 2.39786 -0.952497 15.7258 -5.70414 -2.58934 -2.59065 3.64173 0.128122 -3.86992 15.3076 0.848327 -10.7123 13.2464 16.3783 -7.95139e-016 6.36111e-015 -0 -91.2292 -49.3392 -7.3943 -15.5133 15.648 -24.7008 0.368473 9.90896 -0.00117926 -11.3352 -0.196949 9.92009 95.1729 -29.2161 11.2968 18.5142 15.3833 19.3952 -0.369625 9.91382 0.00119886 0.132005 -14.866 0.860637 -10.7024 17.532 36.6919 3.93433 -1.07895 0.0583341 -8.57875e-012 -1.45646e-011 4.30965e-012 
23.4593 102.422 197.074 -3.41028 -0.177341 175.268 -15.7291 -4.37739 -0.492471 16.6564 41.8624 -25.9326 14.8917 1.67556 -0.84632 16.3616 -1.0872 -0.0893844 -2.86758 3.66004 0.131854 -4.15016 15.3019 0.886811 -10.419 13.3005 16.295 3.97569e-016 3.18055e-015 7.95139e-016 -91.2602 -48.5586 -8.71378 -15.4615 15.6005 -24.5672 0.368473 9.90896 -0.00117926 -10.8806 -0.141368 9.68785 94.8382 -29.3016 10.6465 18.7104 15.4204 19.5327 -0.369625 9.91382 0.00119886 -0.152686 -14.6154 0.963004 -10.9169 18.2626 36.4836 3.7536 -1.93084 0.0966501 -8.57835e-012 -1.45677e-011 4.31601e-012 
23.1236 102.368 196.125 -3.46306 -0.158502 175.339 -15.8566 -6.11347 0.189057 17.8212 43.9677 -26.9534 14.7903 0.682082 -0.716444 15.6904 -0.197898 0.393704 -3.00719 3.65381 0.101676 -4.48672 15.4339 0.949298 -10.14 13.2329 16.2141 -3.97569e-016 3.18055e-015 -1.59028e-015 -91.3918 -47.6886 -10.0267 -15.3241 15.6057 -24.7178 0.368473 9.90896 -0.00117926 -10.4491 -0.0890578 9.21623 94.6728 -29.098 10.2444 18.9456 15.4302 19.4746 -0.369625 9.91382 0.00119886 -0.437602 -14.2496 1.07546 -11.0439 18.768 36.2712 3.72571 -2.58378 0.120656 -8.57915e-012 -1.45661e-011 4.30965e-012 
22.815 102.325 195.198 -3.49761 -0.122753 175.376 -15.8848 -7.81825 0.718219 18.8379 45.3361 -27.7287 14.7392 -0.60228 -0.553675 14.2362 -0.402666 0.280217 -3.1036 3.63469 0.0622026 -4.7853 15.5625 1.00661 -9.91334 13.1736 16.1503 -3.97569e-016 9.54166e-015 -1.19271e-015 -91.5098 -46.7896 -11.3108 -15.1563 15.6078 -24.8337 0.368473 9.90896 -0.00117926 -10.0494 -0.0421269 8.78372 94.5337 -28.8323 9.88668 19.2019 15.4337 19.3583 -0.369625 9.91382 0.00119886 -0.691544 -13.8227 1.18386 -11.1466 19.1696 36.1001 3.72732 -3.15878 0.139193 -8.57875e-012 -1.45669e-011 4.30965e-012 
22.5391 102.282 194.268 -3.51533 -0.0804881 175.338 -15.8279 -9.49582 0.872805 19.3274 45.9469 -27.6995 14.6803 -2.13295 -0.36065 12.1836 -0.40672 0.286787 -3.23824 3.61265 0.0373454 -4.92964 15.5343 1.02537 -9.81909 13.2539 16.1259 -1.98785e-016 -3.18055e-015 -0 -91.5203 -45.8963 -12.4936 -14.9927 15.5561 -24.6115 0.368473 9.90896 -0.00117926 -9.71712 -0.00554582 8.7002 94.2796 -28.7627 9.34872 19.4484 15.4445 19.286 -0.369625 9.91382 0.00119886 -0.888334 -13.3595 1.26271 -11.2638 19.5395 36.061 3.63291 -3.71789 0.158931 -8.57835e-012 -1.45685e-011 4.31283e-012 
22.2971 102.245 193.351 -3.49526 -0.0162708 175.25 -15.6463 -11.1095 0.856486 19.4264 45.8158 -27.2911 14.6483 -3.76179 -0.156293 10.3005 -0.342468 0.340108 -3.38473 3.5823 0.0170499 -4.99047 15.5119 1.02895 -9.75539 13.3762 16.1345 2.38542e-015 0 7.95139e-016 -91.5444 -45.018 -13.7058 -14.8242 15.4857 -24.2643 0.368473 9.90896 -0.00117926 -9.41868 0.0254795 8.64681 94.0346 -28.6389 8.8934 19.6981 15.4441 19.1551 -0.369625 9.91382 0.00119886 -1.03236 -12.8556 1.31296 -11.3712 19.8641 36.0418 3.54665 -4.26207 0.1785 -8.57915e-012 -1.45661e-011 4.30965e-012 
22.0975 102.219 192.461 -3.40717 0.0873413 175.121 -15.2618 -12.6285 0.762145 19.2334 44.9138 -26.9046 14.6473 -5.47949 0.0585858 9.9732 0.202951 0.660053 -3.55106 3.54114 0.00136674 -4.99668 15.6491 1.03131 -9.63619 13.4765 16.1879 2.20695e-032 -3.18055e-015 3.97569e-016 -91.6922 -44.1476 -15.1087 -14.6627 15.4155 -23.8908 0.368473 9.90896 -0.00117926 -9.12398 0.0548521 8.32293 93.8925 -28.2019 8.79209 19.9726 15.4116 18.855 -0.369625 9.91382 0.00119886 -1.11121 -12.3122 1.29921 -11.4652 20.1503 35.8993 3.57012 -4.84108 0.200074 -8.57796e-012 -1.45669e-011 4.30647e-012 
21.9239 102.197 191.583 -3.27957 0.213873 174.951 -14.7311 -14.0369 0.706417 18.7481 43.3135 -26.3301 14.6927 -6.82489 0.22757 9.50935 0.888325 1.08384 -3.71556 3.49045 -0.0161082 -4.95817 15.818 1.02753 -9.49525 13.5851 16.2537 -3.97569e-016 -3.18055e-015 3.97569e-016 -91.8765 -43.3498 -16.5155 -14.4823 15.3452 -23.5305 0.368473 9.90896 -0.00117926 -8.85577 0.0806992 7.98372 93.8109 -27.7443 8.8004 20.2142 15.367 18.5123 -0.369625 9.91382 0.00119886 -1.14709 -11.7376 1.30547 -11.5135 20.4137 35.8155 3.5859 -5.37058 0.219722 -8.57835e-012 -1.45669e-011 4.31283e-012 
21.755 102.165 190.708 -3.13317 0.357606 174.716 -14.0641 -15.3159 0.888827 18.0579 41.0187 -25.5629 14.7716 -7.00697 0.249548 6.99014 1.59336 1.59989 -3.87348 3.42909 -0.0389783 -4.87262 15.9261 1.01184 -9.3533 13.707 16.3106 -5.96354e-016 3.18055e-015 1.59028e-015 -92.1312 -42.7616 -17.896 -14.2739 15.2719 -23.169 0.368473 9.90896 -0.00117926 -8.64802 0.101043 7.8658 93.7939 -27.5459 8.73741 20.3466 15.3217 18.2096 -0.369625 9.91382 0.00119886 -1.17094 -11.1455 1.44393 -11.4558 20.7 36.0248 3.45255 -5.7536 0.232937 -8.57955e-012 -1.45661e-011 4.31283e-012 
21.6143 102.144 189.844 -2.96113 0.503688 174.488 -13.2559 -16.4425 1.16877 17.1288 38.18 -24.5304 14.9369 -7.00649 0.252444 4.50714 2.0681 1.97464 -3.9822 3.36186 -0.0755893 -4.80546 16.0209 1.00065 -9.16258 13.8548 16.336 5.96354e-016 6.36111e-015 1.59028e-015 -92.2791 -42.1783 -18.9939 -14.0029 15.2253 -23.0656 0.368473 9.90896 -0.00117926 -8.43824 0.119907 7.72408 93.8051 -27.3799 8.68456 20.4501 15.2832 17.967 -0.369625 9.91382 0.00119886 -1.15727 -10.5197 1.59193 -11.3833 20.92 36.2314 3.34284 -6.07777 0.243496 -8.57756e-012 -1.45669e-011 4.30647e-012 
21.5221 102.159 189.002 -2.75078 0.62859 174.352 -12.2926 -17.3803 1.42967 15.9243 34.8879 -22.9618 15.2975 -7.80592 0.368144 4.02634 1.82002 1.82244 -3.97777 3.29198 -0.138167 -4.81973 16.138 1.00998 -8.88492 14.0579 16.2715 -1.19271e-015 3.18055e-015 -7.95139e-016 -92.0793 -41.3792 -19.3435 -13.5807 15.2555 -23.6752 0.368473 9.90896 -0.00117926 -8.18887 0.139123 7.32379 93.8318 -27.0605 8.68789 20.5898 15.2653 17.846 -0.369625 9.91382 0.00119886 -1.06776 -9.85273 1.63919 -11.3744 20.9914 36.1403 3.43744 -6.39417 0.253818 -8.57796e-012 -1.45669e-011 4.30329e-012 
21.4665 102.187 188.166 -2.54423 0.753019 174.255 -11.2516 -18.1518 1.78915 14.6903 31.2453 -21.4844 15.7018 -8.60895 0.487135 4.04834 1.45853 1.58579 -3.91961 3.22302 -0.218664 -4.92077 16.2213 1.03531 -8.51045 14.2713 16.2028 1.39149e-015 -3.18055e-015 -7.95139e-016 -91.7465 -40.5883 -19.5514 -13.1595 15.2943 -24.3972 0.368473 9.90896 -0.00117926 -7.85771 0.163451 6.87062 93.8077 -26.7448 8.67456 20.7367 15.2616 17.805 -0.369625 9.91382 0.00119886 -0.955906 -9.13216 1.66408 -11.389 20.9534 35.9747 3.57181 -6.71546 0.263547 -8.57955e-012 -1.45693e-011 4.31283e-012 
21.4405 102.218 187.323 -2.38343 0.886058 174.157 -10.1906 -18.763 2.41027 13.4329 27.3982 -20.4962 16.0113 -8.84376 0.52879 3.39475 1.55271 1.6708 -3.84421 3.16001 -0.316975 -5.15391 16.1998 1.07947 -7.98418 14.4528 16.2282 -5.96354e-016 3.18055e-015 1.59028e-015 -91.4008 -40.0111 -20.1572 -12.8979 15.2847 -24.6685 0.368473 9.90896 -0.00117926 -7.35618 0.202034 6.52751 93.6484 -26.5655 8.57678 20.8717 15.2723 17.8382 -0.369625 9.91382 0.00119886 -0.87867 -8.33549 1.68887 -11.411 20.7885 35.9129 3.61231 -7.08866 0.27324 -8.57796e-012 -1.45669e-011 4.30647e-012 
21.4492 102.241 186.468 -2.25462 1.0389 174.1 -9.14153 -19.2229 3.04398 12.1565 23.5352 -19.9422 16.2716 -8.81975 0.534495 3.07592 1.73136 1.80049 -3.75614 3.10181 -0.421504 -5.46164 16.1537 1.13623 -7.4077 14.6229 16.2523 -5.96354e-016 -3.18055e-015 7.95139e-016 -90.9933 -39.4516 -20.8148 -12.7019 15.2663 -24.8287 0.368473 9.90896 -0.00117926 -6.78598 0.243539 6.18802 93.3995 -26.409 8.42617 21.0293 15.29 17.9013 -0.369625 9.91382 0.00119886 -0.79611 -7.48553 1.77008 -11.4534 20.5831 35.8003 3.64718 -7.46175 0.282601 -8.57796e-012 -1.45638e-011 4.31283e-012 
